<svg xmlns="http://www.w3.org/2000/svg" id="Layer_1" x="0" y="0" version="1.1" viewBox="0 0 64 64" xml:space="preserve"><g id="_x32_1"><path fill="#2d3e4f" d="M24.6 36.6c-1.3.3-1.8-.6-2.1-1.7-.6-2.1-1.2-4.3-1.8-6.4-.4-1.3-.7-2.6-1.1-3.8h-.4c0 1.3.1 2.6.3 3.8.9 5.4 3.2 10.4 4.1 15.9-.4 0-.7.1-1.1.1-3.3.1-3.3.1-3.3 3.4v11.7c0 2-.9 3.1-2.5 3.1-1.5 0-2.4-1.1-2.4-3V46.4c0-.6-.2-1.3-.3-1.9h-.6c-.2.5-.4 1.1-.4 1.7v13.3c0 2.1-.8 3.1-2.5 3.1-1.6 0-2.5-1.1-2.5-3.1v-15H3.7c.9-5.5 3.2-10.6 3.9-16 .2-1.3.2-2.5.1-3.9-.4 1.3-.8 2.6-1.1 3.8-.6 1.9-1.1 3.9-1.7 5.8-.1.3-.1.7-.2 1-.3 1-1 1.5-2.1 1.2-1.1-.3-1.3-1-1-2 .8-3 1.7-5.9 2.5-8.9.4-1.3.7-2.6 1.1-3.9.3-1 .7-2 .8-3 .1-.9.4-1.5.8-2 .6-.6 1.4-.9 2.6-.9h1.5c.5 1.2 1.7 2 3 2.1 1.3-.1 2.5-.8 3-1.9.7 0 1.3.1 2 .1h.1c.2 0 .3.1.5.2.6.3 1.2.9 1.3 1.5l3 10.2c.6 2 1.2 4.1 1.8 6.1.4 1.1.4 2.2-1 2.6zM55.5 6.8c-.1 1.6-.8 3.3-2.3 4.6-1.5 1.4-3.4 1.4-4.9 0-1.8-1.7-2.7-3.9-2.1-6.4.6-2.4 2.8-3.9 5.3-3.5 2.3.4 4 2.5 4 5.3zM18.4 9c-.1 1.6-.8 3.3-2.3 4.6-1.5 1.4-3.4 1.4-4.9 0-1.8-1.7-2.7-3.9-2.1-6.4.6-2.4 2.8-3.9 5.3-3.5 2.3.4 4 2.5 4 5.3zM61.6 20.3c-.2-.7-.5-1.4-.8-2.1-.6-1.1-1.6-2.1-2.7-2.7-1.3-.7-2.7-.9-4.1-1.3h-.2-.1c-.1 0-.3-.1-.4-.1-2-.4-4-.4-6.1.2-.6.1-1.1.3-1.6.5-.7.2-1.5.4-2.1.8-1.1.6-2.1 1.6-2.7 2.7-.3.6-.6 1.4-.8 2.1-1.1 4.8-1.4 9.7-.5 14.6.2 1.3.4 2.6.6 4 .3 1.4 1.4 1.3 2.4 1.3 1.2-.1.9-.9.9-1.7-.1-1.1-.2-2.1-.3-3.2-.5-4.3-.3-8.5.9-12.6 0 2.8-.1 5.6 0 8.3.2 9.5.5 19 .8 28.5.1 1.7.6 2.1 2.8 2.1 1.8 0 2.3-.4 2.3-2.1 0-3.8 0-7.6.1-11.3 0-3 0-5.9.1-8.9H51.3c.1 3 0 5.9.1 8.9 0 3.8 0 7.6.1 11.3 0 1.7.5 2.1 2.3 2.1 2.2 0 2.8-.4 2.8-2.1.3-9.5.6-19 .8-28.5.1-2.8 0-5.6 0-8.3 1.3 4.2 1.4 8.4.9 12.6-.1 1.1-.2 2.1-.3 3.2-.1.7-.3 1.6.9 1.7 1 .1 2.2.2 2.4-1.3.2-1.3.4-2.6.6-4 1.1-5 .9-9.9-.3-14.7z"/><path fill="#2e79be" d="M32.5 61.6c-1.3 0-2.4-1.1-2.4-2.4V3.8c0-1.3 1.1-2.4 2.4-2.4s2.4 1.1 2.4 2.4v55.3c0 1.4-1.1 2.5-2.4 2.5z"/></g></svg>