<svg xmlns="http://www.w3.org/2000/svg" enable-background="new 0 0 68 68" viewBox="0 0 68 68"><path fill="#dbdbdb" d="M62.1999512,31.8727036c-1.75,3.3203125-3.75,8.7705078-2.4699707,15H8.2700195
						c1.2800293-6.2294922-0.7099609-11.6796875-2.4699707-15c-0.8200684-1.5595703,0.289917-3.4399414,2.0499268-3.4794922
						l11.9200439-0.3105469c1.5400391-0.0395508,2.7099609-1.3696289,2.5599365-2.8896484l-0.0100098-0.0498047
						c-0.1400146-1.4604492,1.0799561-2.7104492,2.5300293-2.5605469c5.4200439,0.5703125,10.8499756,0.5703125,16.2700195,0
						c1.4599609-0.1499023,2.6700439,1.1000977,2.5299072,2.5605469c-0.0100098,0.0898438-0.0100098,0.1796875-0.0100098,0.2597656
						c0,1.4101563,1.1201172,2.5898438,2.5600586,2.6298828l13.9499512,0.3603516
						C61.9099121,28.4327621,63.0300293,30.3131332,62.1999512,31.8727036z"/><path fill="#488ff7" d="M11.3299561 41.2330551v20.4697266H9c-2.1300049 0-3.8601074-1.7197266-3.8601074-3.8496094v-12.5C3.3100586 44.7228012 2 43.0030746 2 40.9630356c0-2.6499023 2.2199707-4.7900391 4.9099121-4.6499023C9.4399414 36.4430161 11.3299561 38.7027817 11.3299561 41.2330551zM66 40.9630356c0 2.0400391-1.3000488 3.7597656-3.1400146 4.3901367v12.5c0 2.1298828-1.7200928 3.8496094-3.8499756 3.8496094h-2.3300781V41.2330551c0-2.5302734 1.8900146-4.7900391 4.4100342-4.9199219C63.7800293 36.1729965 66 38.3131332 66 40.9630356z"/><rect width="45.348" height="9.171" x="11.329" y="52.535" fill="#3275c6"/><rect width="45.348" height="5.66" x="11.329" y="46.875" fill="#b9b9b9"/><path fill="#304056" d="M15.0062599 61.7056427l-1.0936289 3.5447845c-.1380844.452301-.5655327.7665176-1.0555792.7665176h-1.9356375c-.6032753 0-1.0936289-.4903488-1.0936289-1.0936279v-3.2176743H15.0062599zM52.9989929 61.7056427l1.0936279 3.5447845c.1380844.452301.5655327.7665176 1.0555801.7665176h1.9356346c.6032753 0 1.0936279-.4903488 1.0936279-1.0936279v-3.2176743H52.9989929z"/><path fill="#b9b9b9" d="M26.3713188 30.6129379c.3599854.3598633.5899658.8598633.5899658 1.4199219v9.5c0 1.1000977-.9000244 2-2 2s-2-.8999023-2-2v-9.5c0-1.1098633.9000244-2 2-2C25.5112114 30.0328598 26.0112114 30.2530746 26.3713188 30.6129379zM45.0412407 32.0328598v9.5c0 1.1000977-.8898926 2-2 2-1.0999756 0-2-.8999023-2-2v-9.5c0-1.1098633.9000244-2 2-2 .5500488 0 1.0500488.2202148 1.4200439.5800781C44.82127 30.9728012 45.0412407 31.4728012 45.0412407 32.0328598zM35.4212456 30.6129379c.3599854.3598633.5799561.8598633.5799561 1.4199219v9.5c0 1.1000977-.8898926 2-2 2-1.0998535 0-2-.8999023-2-2v-9.5c0-1.1098633.9001465-2 2-2C34.5512505 30.0328598 35.0512505 30.2530746 35.4212456 30.6129379z"/><circle cx="6.666" cy="40.988" r="2.188" fill="#3275c6"/><circle cx="61.34" cy="40.988" r="2.188" fill="#3275c6"/><path fill="#488ff7" d="M42.9399414,10.9229956c0,0.1699219,0,0.3398438-0.0100098,0.5
				c-0.119873,2.1000977-0.9499512,4-2.2600098,5.4599619c-0.2299805,0.25-0.4599609,0.4799805-0.7099609,0.7099609
				C38.5,18.902977,36.5999756,19.7330551,34.5,19.8531723c-0.1600342,0.0097656-0.3300781,0.0097656-0.5,0.0097656
				c-0.1700439,0-0.3400879,0-0.5-0.0097656c-2.0900879-0.1201172-3.9899902-0.9501953-5.4499512-2.2602539
				c-0.25-0.2299805-0.4801025-0.4599609-0.710083-0.7099609c-1.3099365-1.4599619-2.1400146-3.3598642-2.2600098-5.4599619
				c-0.0100098-0.1601563-0.0100098-0.3300781-0.0100098-0.5s0-0.340332,0.0100098-0.5
				c0.1199951-2.090332,0.9500732-3.9902344,2.2600098-5.4501953c0.2200928-0.25,0.460083-0.4897461,0.710083-0.7099609
				C29.5100098,2.9430153,31.4099121,2.1129372,33.5,1.99282c0.1599121-0.0097656,0.3299561-0.0097656,0.5-0.0097656
				c0.1699219,0,0.3399658,0,0.5,0.0097656c2.0999756,0.1201172,4,0.9501953,5.4599609,2.2700193
				c0.25,0.2202148,0.4899902,0.4599609,0.7099609,0.7099609c1.3100586,1.4599609,2.1401367,3.3598633,2.2600098,5.4501953
				C42.9399414,10.5826635,42.9399414,10.7530737,42.9399414,10.9229956z"/><path fill="#304056" d="M34.5 1.99282v1.2900391c0 .2700195-.2199707.5-.5.5-.2700195 0-.5-.2299805-.5-.5V1.99282c.1599121-.0097656.3299561-.0097656.5-.0097656C34.1699219 1.9830544 34.3399658 1.9830544 34.5 1.99282zM34.5 18.5728989v1.2802734c-.1600342.0097656-.3300781.0097656-.5.0097656-.1700439 0-.3400879 0-.5-.0097656v-1.2802734c0-.2797852.2299805-.5.5-.5C34.2800293 18.0728989 34.5 18.2931137 34.5 18.5728989zM26.8599854 10.9229956c0 .2797852-.2299805.5-.5.5h-1.2800293c-.0100098-.1601563-.0100098-.3300781-.0100098-.5s0-.340332.0100098-.5h1.2800293C26.6300049 10.4229956 26.8599854 10.652976 26.8599854 10.9229956zM42.9399414 10.9229956c0 .1699219 0 .3398438-.0100098.5h-1.2800293c-.2799072 0-.5-.2202148-.5-.5 0-.2700195.2200928-.5.5-.5h1.2800293C42.9399414 10.5826635 42.9399414 10.7530737 42.9399414 10.9229956zM28.9499512 5.8727026c-.0999756.1000977-.2299805.1503906-.3499756.1503906-.1300049 0-.2600098-.050293-.3599854-.1503906l-.9000244-.8999023c.2200928-.25.460083-.4897461.710083-.7099609l.8999023.8999023C29.1499023 5.362937 29.1499023 5.6729956 28.9499512 5.8727026zM40.6699219 16.8829575c-.2299805.25-.4599609.4799805-.7099609.7099609l-.8999023-.9101563c-.2000732-.1899414-.2000732-.5097656 0-.699708.1899414-.2001953.5098877-.2001953.6999512 0L40.6699219 16.8829575zM28.9499512 16.6827621l-.8999023.9101563c-.25-.2299805-.4801025-.4599609-.710083-.7099609l.9000244-.8999033c.1999512-.2001953.5200195-.2001953.7099609 0C29.1499023 16.1729965 29.1499023 16.4928207 28.9499512 16.6827621zM40.6699219 4.9728003l-.9099121.8999023c-.0900879.1000977-.2199707.1503906-.3500977.1503906-.1298828 0-.2600098-.050293-.3498535-.1503906-.2000732-.199707-.2000732-.5097656 0-.7099609l.8999023-.8999023C40.2099609 4.4830542 40.4499512 4.7228003 40.6699219 4.9728003z"/><path fill="#dbdbdb" d="M36.0009766,13.612937c-0.1352539,0-0.2705078-0.0549316-0.3691406-0.1628418l-1.9975586-2.1875
				c-0.0839844-0.092041-0.1308594-0.2124023-0.1308594-0.3371582v-5.40625c0-0.276123,0.2236328-0.5,0.5-0.5s0.5,0.223877,0.5,0.5
				v5.2124023l1.8666992,2.0441895c0.1865234,0.2038574,0.171875,0.5202637-0.0322266,0.7062988
				C36.2421875,13.5697241,36.121582,13.612937,36.0009766,13.612937z"/></svg>