<svg xmlns="http://www.w3.org/2000/svg" enable-background="new 0 0 48 48" viewBox="0 0 48 48"><path fill="#B6B7B7" d="M34.5,43.1H13.5c-1.1,0-2-0.9-2-2s0.9-2,2-2h21.1c1.1,0,2,0.9,2,2S35.6,43.1,34.5,43.1z"/><path fill="#B6B7B7" d="M11.3 47.5c-.3 0-.6-.1-.9-.2-1-.5-1.4-1.6-.9-2.6l6.9-14c.5-1 1.6-1.4 2.6-.9 1 .5 1.4 1.6.9 2.6l-6.9 14C12.7 47.1 12 47.5 11.3 47.5zM36.7 47.5c-.7 0-1.4-.4-1.8-1.1l-6.9-14c-.5-1-.1-2.1.9-2.6 1-.5 2.1-.1 2.6.9l6.9 14c.5 1 .1 2.1-.9 2.6C37.3 47.4 37 47.5 36.7 47.5z"/><path fill="#987FB8" d="M38.7,19c0,6.9-6.6,12.5-14.7,12.5c-8.1,0-14.7-5.6-14.7-12.5H38.7z"/><path fill="#7A63A5" d="M24,33.5C14.8,33.5,7.4,27,7.4,19c0-1.1,0.9-2,2-2h29.4c1.1,0,2,0.9,2,2C40.6,27,33.2,33.5,24,33.5z     M11.5,21c1.1,4.9,6.3,8.6,12.5,8.6s11.4-3.7,12.5-8.6H11.5z"/><g><path fill="#FBCA61" d="M16.7 14.9c-.5 0-1-.2-1.4-.6-.7-.8-.7-2 .1-2.8.5-.5.5-.5-.1-1.7-.7-1.4-1.9-3.8-.3-7 .5-1 1.7-1.3 2.6-.9 1 .5 1.3 1.7.9 2.6C17.7 6 18.2 6.8 18.8 8c.7 1.4 1.9 3.8-.7 6.3C17.7 14.7 17.2 14.9 16.7 14.9zM30.9 14.9c-.5 0-1-.2-1.4-.6-.7-.8-.7-2 .1-2.8.5-.5.5-.5-.1-1.7-.7-1.4-1.9-3.8-.3-7 .5-1 1.7-1.3 2.6-.9 1 .5 1.3 1.7.9 2.6C31.9 6 32.3 6.8 32.9 8c.7 1.4 1.9 3.8-.7 6.3C31.8 14.7 31.4 14.9 30.9 14.9zM23.8 13.7c-.5 0-1-.2-1.4-.6-.7-.8-.7-2 .1-2.8C23 9.8 23 9.8 22.4 8.6c-.7-1.4-1.9-3.8-.3-7 .5-1 1.7-1.3 2.6-.9 1 .5 1.3 1.7.9 2.6-.7 1.4-.3 2.2.3 3.5.7 1.4 1.9 3.8-.7 6.3C24.8 13.5 24.3 13.7 23.8 13.7z"/></g></svg>