<svg xmlns="http://www.w3.org/2000/svg" enable-background="new 0 0 65 65" viewBox="0 0 65 65"><path fill="#D45947" d="M53.6,10.3H11.4c-2.1,0-3.8,1.7-3.8,3.8v27.3h49.9V14.1C57.4,12,55.7,10.3,53.6,10.3z"/><path fill="#E26659" d="M53.6,10.3H11.4c-2.1,0-3.8,1.7-3.8,3.8v1.5c0-2.1,1.7-3.8,3.8-3.8h42.3c2.1,0,3.8,1.7,3.8,3.8v-1.5   C57.4,12,55.7,10.3,53.6,10.3z"/><path fill="#EFF3F5" d="M57.6,33.3c-0.6-0.5-1.4-0.8-2.2-0.8H9.7c-0.8,0-1.6,0.3-2.2,0.8l-4.1,3.1h58.3L57.6,33.3z"/><path fill="#DBDFE0" d="M60.4 36.1H4.6c-1.2 0-2.1 1-2.1 2.1v3.1h60.2v-3.1C62.6 37.1 61.6 36.1 60.4 36.1zM30.5 23.8H14.3c-.5 0-.9.4-.9.9v6.9c0 .5.4.9.9.9h16.2c.5 0 .9-.4.9-.9v-6.9C31.4 24.3 31 23.8 30.5 23.8z"/><path fill="#EFF3F5" d="M30.5,23.8H14.3c-0.5,0-0.9,0.4-0.9,0.9v0.8c0-0.5,0.4-0.9,0.9-0.9h16.2c0.5,0,0.9,0.4,0.9,0.9v-0.8    C31.4,24.3,31,23.8,30.5,23.8z"/><path fill="#C0C3C4" d="M14.3,32.6h16.2c0.5,0,0.9-0.4,0.9-0.9v-0.8c0,0.5-0.4,0.9-0.9,0.9H14.3c-0.5,0-0.9-0.4-0.9-0.9v0.8    C13.4,32.2,13.8,32.6,14.3,32.6z"/><path fill="#DBDFE0" d="M50.7,23.8H34.5c-0.5,0-0.9,0.4-0.9,0.9v6.9c0,0.5,0.4,0.9,0.9,0.9h16.2c0.5,0,0.9-0.4,0.9-0.9v-6.9    C51.6,24.3,51.2,23.8,50.7,23.8z"/><path fill="#EFF3F5" d="M50.7,23.8H34.5c-0.5,0-0.9,0.4-0.9,0.9v0.8c0-0.5,0.4-0.9,0.9-0.9h16.2c0.5,0,0.9,0.4,0.9,0.9v-0.8    C51.6,24.3,51.2,23.8,50.7,23.8z"/><path fill="#C0C3C4" d="M34.5,32.6h16.2c0.5,0,0.9-0.4,0.9-0.9v-0.8c0,0.5-0.4,0.9-0.9,0.9H34.5c-0.5,0-0.9-0.4-0.9-0.9v0.8    C33.6,32.2,34,32.6,34.5,32.6z"/><g><rect width="7.8" height="2.7" x="3" y="52" fill="#F0B972"/><rect width="7.8" height="2.7" x="54.1" y="52" fill="#F0B972"/></g><g><rect width="7.8" height="1.4" x="3" y="52" fill="#E39A61"/><rect width="7.8" height="1.4" x="54.1" y="52" fill="#E39A61"/></g><rect width="64" height="13.3" x=".5" y="38.7" fill="#F1786B"/></svg>