<svg xmlns="http://www.w3.org/2000/svg" viewBox="0 0 66 66"><path d="M39 27.8c-1.1.4-1.5 1.7-1.1 2.6l1.1-2.6zm6.9 2.1c2.4.6 4.3.4 5.7-.1v-4.1c-2.4 1.4-5.6 2.5-9.5 2.2l-1.6 3.8c.6.1 1.2.1 1.8.2.6-1.6 2.1-2.4 3.6-2zM13.7 47.2c.1 4-.1 9.5-.9 14.4-.2 1.6.9 3.1 2.5 3.3 1.7.2 3.1-1 3.3-2.5.9-5.9 1.1-13.3.9-17.1 1.9-2.2 1.3-4.6 1.5-5.4-2.2 1.4-5.5 2-8.4 2.1l-1.1 4.1c.6.5 1.4.9 2.2 1.1zm-3.6-24s0-.1.1.2v.2c1.4-1 4.6-2.8 7.8-2.5-2.6-1.6-6.3-.8-7.9 2.1z"/><circle cx="15.1" cy="13.3" r="5.5"/><path d="M39.3 36.6h-6.2v26.1h6.2V47.6h7.5V46h-7.5zM43.8 35.7c0-.8-.9-1.4-1.8-1.4H30.4c-.9 0-1.8.6-1.8 1.4v.8h15.3v-.8zm-32.7-3.9c0-.1-2-8.6-1.9-8-.9-1.5-2.1-2.5-3.9-2.1-1.5.3-2.6 1.4-2.6 1.4l-1 8.7L3 34.6s-.1 5.5-.2 5.8c0 .3 2.5 6.6 2.5 6.6h.1l5-.5.3-1.1 1.8-6.3c-1.1-2.4-1.4-7.3-1.4-7.3zm9.9 7v-3.6c-2.5-.6-4.4-1.9-5.9-3.4v-1.5c3 3.6 7.6 5.2 13 3.8 1-.3 1.7-1.3 1.4-2.4-.3-1-1.3-1.7-2.4-1.4-5.3 1.3-8.9-1-10.3-4.6-.4-1-1.5-1.5-2.5-1.1-1 .4-1.5 1.5-1.1 2.5.4 1 1 2.1 1.9 3.2v1.5c-1.4-1.4-2.3-3-2.8-4.3-.6-1.5.2-3.2 1.7-3.8 1.5-.6 3.2.2 3.8 1.7.2.6 1.1 2.5 3.2 3.6v-2.8c0-1.5-.5-2.8-1.4-3.8-3.8-1.2-7.8 1.4-9.1 2.3l1.7 7v.1s.3 4.7 1.2 6.8l.1.3-.6 2.2m47.3-20.6c-.7-.6-1.6-.6-2.2-.2-.1 0-4.3.4-5.1 4.7-.1.4-.1.7-.1 1.1v3.1c2-1.2 2.9-3.2 3.2-3.8.6-1.5 2.3-2.3 3.8-1.7 1.4.5 2.3 2.2 1.7 3.7-1.2 3.4-4.4 6.9-8.7 8.1v6c0 1.5.5 2.8 1.5 3.9-.2 5 0 11.3.9 17.1.2 1.5 1.6 2.7 3.3 2.5 1.6-.2 2.7-1.7 2.5-3.3-.7-4.9-1-10.4-.9-14.4 2.6-.6 4.4-2.9 4.4-5.7V26.2c-.1-2.7-1.9-4.9-4.3-5.7z"/><circle cx="58.5" cy="13.3" r="5.5"/><path d="M60.4 27.1c.4-1-.1-2.1-1.1-2.5-1-.4-2.1.1-2.5 1.1-1.6 4.1-5.6 6.4-11.1 5-1.1-.3-2.2.5-2.4 1.4-.3 1 .4 2.1 1.4 2.4 7.7 2.1 13.7-2 15.7-7.4zm-19 .1c.1-.2 0-.5-.3-.6-.3-.1-.5 0-.6.3 0 .1-2.4 5.8-2.4 5.7-.3.6.6 1 .9.4 4.7-11.4-1.1 2.5 2.4-5.8zm-17.9-8 3.3-.4c.7.3 1.4.4 2.2.4 3.2 0 5.8-2.6 5.8-5.8 0-3.2-2.6-5.9-5.8-5.9-3.2 0-5.8 2.6-5.8 5.9 0 1.1.3 2.1.8 2.9l-.5 2.9zm3.9-9.3c.5-.4 1-.6 1.7-.6s1.2.2 1.7.6c.4.4.7.9.7 1.6 0 .5-.1.8-.4 1.2-.1.2-.3.3-.3.4l-.3.3-.3.3-.2.2c-.1.2-.2.4-.2.7v.5h-1.3v-.7c0-.3 0-.5.1-.7.1-.1.2-.4.5-.6l.8-.8c.2-.2.3-.4.3-.7 0-.3-.1-.5-.3-.7-.2-.2-.4-.3-.7-.3s-.5.1-.7.3c-.4.1-.5.3-.5.6h-1.4c0-.7.3-1.2.8-1.6zm17.3 4.7c.9 0 1.8-.2 2.6-.5l3.9.5-.5-3.4c.6-1 .9-2.2.9-3.4 0-3.8-3-6.8-6.8-6.8S38 4 38 7.8c-.1 3.8 2.9 6.8 6.7 6.8zM42.2 7l1.2 1.8 3.5-5s2.6-.1 2.9.6l-6.7 7.4-3.5-5.2c0 .1 2.2-.1 2.6.4z"/></svg>