<svg xmlns="http://www.w3.org/2000/svg" viewBox="0 0 135 135"><path fill="#ffcecf" d="m53.348 24.13-.918-3.693s1.361-3.63 2.427-2.817c1.066.823-.148 1.878 0 1.783.148-.095 4.252-3.588 4.822 1.034.57 4.632-6.33 3.693-6.33 3.693z"/><path fill="#8d613a" d="M38.553 84.9c-1.35-.422-2.574-1.783-3.471-2.3-.17-.084-.327-.169-.475-.232-.211-.105-.401-.18-.57-.2-.886-.116-2.268-1.119-2.701-1.678-.105-.137-.169-.496-.18-.897-.02-.4 0-.833.075-1.14.031-.2.063-.326.063-.326.169-.918.443-1.879.707-2.037 1.73-1.087 3.302-1.614 5.075-.59.802.453 1.751 1.35 2.416 1.804.01.02.042.042.074.063.37.21 3.366 2.416 4.189 3.862.063.116.116.221.147.327.095.337-.316 4.906-5.349 3.344z"/><path fill="#111d33" d="M38.553 84.9c-1.35-.422-2.574-1.783-3.471-2.3-.17-.084-.327-.169-.475-.232-.211-.105-.401-.18-.57-.2-.886-.116-2.268-1.119-2.701-1.678-.105-.137-.169-.496-.18-.897 0-.01.011-.01.011-.02.348.632 1.034.99 1.72 1.223.686.222 1.403.348 2.047.675 1.203.58 2.005 1.762 3.176 2.395.96.528 2.131.633 3.176.306.939-.285 1.677-1.086 2.11-1.952.169-.316.285-.643.359-.991.063.116.116.221.147.327.095.337-.316 4.906-5.349 3.344z"/><path fill="#8d613a" d="M25.135 92.606c-1.35-.422-2.575-1.783-3.472-2.3-.168-.085-.327-.169-.474-.232-.211-.106-.401-.18-.57-.2-.886-.117-2.269-1.12-2.701-1.678-.106-.138-.169-.496-.18-.897-.02-.401 0-.834.074-1.14.032-.2.064-.327.064-.327.168-.918.443-1.878.706-2.036 1.73-1.087 3.303-1.614 5.076-.591.801.454 1.751 1.35 2.416 1.804.01.021.042.042.074.064.369.21 3.365 2.416 4.188 3.861.064.116.116.222.148.327.095.338-.316 4.907-5.35 3.345z"/><path fill="#111d33" d="M25.135 92.606c-1.35-.422-2.575-1.783-3.472-2.3-.168-.085-.327-.169-.474-.232-.211-.106-.401-.18-.57-.2-.886-.117-2.269-1.12-2.701-1.678-.106-.138-.169-.496-.18-.897 0-.01.011-.01.011-.021.348.633 1.034.992 1.72 1.224.686.221 1.403.348 2.047.675 1.202.58 2.004 1.762 3.176 2.395.96.528 2.13.633 3.175.306.94-.285 1.678-1.087 2.11-1.952.17-.317.286-.644.36-.992.063.116.115.222.147.327.095.338-.316 4.907-5.35 3.345z"/><path fill="#f34b58" d="M33.11 20.049s6.116 2.137 8.63 3.074L52.23 19.8c1.044-.31 2.491 4.543 1.447 4.854-.15.045-10.942 5.823-12.718 5.724s-7.612-1.924-7.612-1.924l-.237-8.404z"/><path fill="#111d33" d="M36.103 38.778s2.803 36.723 2.238 37.726c-.712 1.265-6.071 2.046-7.265 1.027-.855-.73-4.334-28.661-4.334-28.661l3.802-11.17 4.421-.204 1.138 1.282z"/><path fill="#1d2943" d="M31.374 44.809s-4.863 38.644-5.31 40.01c-.642 1.958-6.926 1.997-8.005.258-.253-.407-.563-19.783-1.09-29.563-.263-4.877.19-8.768.402-9.135l.638-.65 13.365-.92z"/><path fill="#ffcecf" d="m114.499 56.804-4.235 1.036-5.025-11.17s-4.054-1.319-1.762-4.109c1.642-1.999 3.265 1.482 3.265 1.482s-.024-.871.292-.914c1.363-.184.611 1.75.611 1.75l6.854 11.925zM99.045 79.08h-.58c-1.35-.011-4.801-.117-7.344-.823-.833-.233-1.572-.517-2.11-.897-2.617-1.847-1.16-14.951-1.16-14.951s-4.506-3.777-2.428-6.035c2.079-2.258 3.345 2.331 3.345 2.331s.306-1.371 1.309-1.245c1.012.116.896 4.632.896 4.632s2.016 9.802 2.079 9.982c.032.105 1.55.253 2.912.38.897.084 1.72.158 1.994.2.042 0 .074.01.085.01l.01.095.813 5.16.179 1.16z"/><path fill="#fdbec2" d="M98.866 77.919c-.095.4-.233.791-.401 1.16-1.35-.01-4.801-.116-7.344-.822.834-.623 1.646-1.288 2.385-2.026.854-.865 1.614-1.847 2.152-2.955.106-.221.18-.559.306-.823.897.085 1.72.159 1.994.201.053.032.085.063.095.105l.813 5.16z"/><path fill="#69482b" d="M119.074 121.288c1.686.973 1.606 3.451.096 4.054-3.183 1.27-7.047-1.97-7.047-1.97s-1.63-.31-2.012-.502c-2.061-1.036-2.596-2.762-1.072-3.785 1.244-.837 4.477-.2 5.771.547.367.212.598.435.918.62.09.052.188.102.298.146.957.418 2.13.36 3.048.89z"/><path fill="#ffcecf" d="M113.48 102.738s.567 18.896 1.058 19.624c.89 1.321 4.528 3.078 5.032-.632.11-.805 2.084-21.409 2.084-21.409l-8.175 2.417z"/><path fill="#69482b" d="M120.276 122.989c-.042.411-.791.873-1.118 1.137-.275.221-.623.306-.97.38-1.172.221-2.449.232-3.472-.38-.929-.56-1.509-1.583-1.868-2.606-.105-.306-.2-.623-.21-.95-.011-.317.052-.654.242-.918.295-.39.907-.475 1.361-.285-.253.074-.422.338-.422.601-.01.254.276.466.466.645 3.514 2.525 5.38.21 5.38.21.063.401.664 1.754.611 2.166zM108.879 127.15c1.686.974 1.606 3.452.096 4.055-3.182 1.27-7.047-1.97-7.047-1.97s-1.63-.31-2.011-.503c-2.062-1.035-2.597-2.76-1.073-3.785 1.245-.836 4.477-.2 5.771.548.367.212.598.435.918.62.09.052.188.101.298.146.957.417 2.13.36 3.048.89z"/><path fill="#ffcecf" d="M103.284 108.6s.568 18.897 1.059 19.625c.89 1.32 4.528 3.078 5.032-.632.11-.805 2.084-21.409 2.084-21.409l-8.175 2.417z"/><path fill="#69482b" d="M110.081 128.851c-.042.412-.791.874-1.118 1.137-.274.222-.623.306-.97.38-1.172.222-2.449.232-3.472-.38-.929-.559-1.509-1.582-1.868-2.606-.105-.306-.2-.622-.21-.95-.011-.316.052-.653.242-.917.295-.39.907-.475 1.361-.285-.253.074-.422.338-.422.601-.01.253.276.465.466.645 3.515 2.524 5.38.21 5.38.21.063.4.664 1.754.611 2.165z"/><path fill="#b28afd" d="M123.184 104.986c-1.36 5.792-14.76 8.905-21.112 7.428-1.72-.401-2.923-1.14-3.24-2.248-1.097-3.914 1.172-13.758 2.66-17.863.474-1.319.812-2.131.812-2.131s-.739-4.938-.296-10.045c.2-2.374.665-4.78 1.572-6.752 1.53-3.282 12.409-7.45 15.331-5.824 4.8 2.669.791 21.017.791 21.017l.011.032c.053.158.042.57.433 1.9 1.086 3.67 3.766 11.394 3.038 14.486z"/><path fill="#986ff9" d="M104.498 86.015c-1.382 4.336-.749 9.074-1.762 13.516-.464 2.015-1.266 3.946-1.698 5.961-.433 2.026-.475 4.242.517 6.056.158.296.348.57.517.866-1.72-.401-2.923-1.14-3.24-2.248-1.097-3.914 1.172-13.758 2.66-17.863.474-1.319.812-2.131.812-2.131s-.739-4.938-.296-10.045c.032-.042.074-.073.106-.105.833-.75 4.263-4.294 4.853-2.12.655 2.415-1.751 5.876-2.469 8.113z"/><path fill="#b28afd" d="M105.257 71.637s-8.31.033-9.072.61c-.762.576-1.373 6.788-.516 7.246 1.563.835 6.32 1.307 6.32 1.307s4.794.361 4.928-3.616c.162-4.805-1.66-5.547-1.66-5.547z"/><path fill="#111d33" d="M120.143 90.503c-1.17 1.49-11.616 4.099-18.5 1.386.109-.94.519-1.643.66-1.714.227.249 10.787 1.897 17.4-1.603l.01.031c.061-.013.491 1.886.43 1.9z"/><path fill="#ffcecf" d="m108.863 69.186-.09-2.937s-3.226.116-3.72-1.814c-.496-1.93-.995-10.947 2.871-11.89 3.131-.763 6.63 1.992 6.63 1.992l1.238 5.493-1.93 3.86.099 5.296c0 .973-5.098.973-5.098 0z"/><path fill="#774b24" d="M121.054 66.999c.465 1.677 1.383 1.698.422 4.79-.01.02-.01.031-.02.052-.454 1.446-1.7 4.042-4.844 3.219 0 0-2.1.612-3.228 0-1.15-.623.084-2.058.084-2.058s-1.751.211-1.71-.622c.033-.844.792-2.311.412-2.765-.38-.464-2.405-1.181-1.92-2.142.496-.95-1.371-2.743-.686-5.402 0-.02.01-.031.01-.053 0 0-.02 0-.041.011-.38.074-2.923.485-2.723-1.604.212-2.258-1.128-4.473-1.424-7.28-.264-2.458 1.678-3.123 2.553-3.102a.76.76 0 0 1 .296.042c.58.211 1.234-2.427 3.102-1.804 3.397 1.129 3.397 1.889 3.978 2.258.59.38 2.279.38 3.481 2.564.602 1.097 1.931 1.509 2.047 2.722.296 2.87 1.499 2.237 1.172 3.883-.38 1.93-.739 2.416-.085 3.745.97 1.931-1.065 2.839-.876 3.546z"/><path fill="#fa5f7f" d="M33.558 20.254c-3.953-2.67-16.157 2.888-17.37 5.697-1.48 3.424 1.384 10.364 1.316 13.96-.031 1.69-.884 6.214-.557 6.738 1.997 3.202 19.978.286 19.843-4.614-.013-.455-.595-4.599-.659-6.141-.164-3.96.409-13.626-2.573-15.64z"/><path fill="#ffcecf" d="M36.952 42.932c-.211 4.41-7.956 2.046-7.956 2.046l.17-3.65s2.173-1.942 2.669-1.066c.316.538.126.813-.064.95 1.055-.465 5.37-2.142 5.18 1.72z"/><path fill="#f34b58" d="M16.317 25.71s3.398 1.89 3.746 5.102c.349 3.213-1.608 7.939-1.608 7.939l10.555 1.917c.918-.035 1.096 4.668.178 4.702 0 0-14.147 1.641-16.864-3.168-2.385-4.222 2.652-15.222 3.993-16.493z"/><path fill="#8d613a" d="M109.533 62.029c-.38.074-2.923.485-2.723-1.604.212-2.258-1.128-4.473-1.424-7.28-.264-2.458 1.678-3.123 2.553-3.102a1.792 1.792 0 0 1-.2.211c-.918.823-1.108 1.467-1.076 2.733.084 2.521.2 5.201 1.593 7.312.39.601.876 1.14 1.277 1.73z"/><path fill="#57b3fe" d="M85.105 35.841c0 2.584-.952 4.955-2.524 6.756a10.292 10.292 0 0 1-6.816 3.51c-.315.026-.646.043-.969.043-1.87 0-3.62-.502-5.133-1.368v-.009a10.303 10.303 0 0 1-5.167-8.932c0-1.878.51-3.646 1.393-5.159a10.29 10.29 0 0 1 4.998-4.376 10.338 10.338 0 0 1 3.909-.765h.051a10.39 10.39 0 0 1 3.314.56 10.108 10.108 0 0 1 3.79 2.338 10.189 10.189 0 0 1 2.72 4.461c.28.935.434 1.921.434 2.941z"/><path fill="#ffd06c" d="M85.105 35.841c0 2.584-.952 4.955-2.524 6.756 0 0-.11-8.235-6.918-12.501l.637-.74s5.04.357 8.371 3.544c.28.935.434 1.921.434 2.941zm-9.329 10.261-.008.009c-.315.025-.646.042-.97.042-1.869 0-3.62-.501-5.132-1.368v-.009c.008-.382.297-10.886 4.546-14.575h.009a2.505 2.505 0 0 0 1.164 0s1.7 10.386.391 15.901zm6.179-17.66-5.78.544-1.155-.442c.034-.085 2.023-2.048 3.144-2.44a10.107 10.107 0 0 1 3.79 2.338zm-7.156 0s-.051.374-.689.102c-.637-.263-3.22-2.235-3.22-2.235a10.338 10.338 0 0 1 3.909-.765h.05c.111.952-.05 2.898-.05 2.898zm-.918.91-.39.441c-4.845 1.114-8.279 6.485-8.89 7.505-.068-.476-.102-.96-.102-1.454 0-1.878.51-3.646 1.393-5.158 2.218-2.27 7.411-1.547 7.411-1.547l.578.212z"/><ellipse cx="70.807" cy="33.533" fill="#fff" opacity=".15" rx="2.413" ry="4.23" transform="rotate(-75.642 70.807 33.533)"/><ellipse cx="69.11" cy="33.437" fill="#fff" opacity=".15" rx=".911" ry="1.597" transform="rotate(-75.642 69.11 33.437)"/><path fill="#f3f1fc" d="M76.3 29.36c0 .375-.374.698-.918.842a2.506 2.506 0 0 1-1.164 0h-.008c-.536-.144-.91-.467-.91-.841 0-.51.672-.918 1.496-.918.833 0 1.504.408 1.504.918z"/><path d="M85.108 35.844c0 2.584-.952 4.955-2.524 6.757a10.292 10.292 0 0 1-6.816 3.51c-.315.025-.646.042-.97.042-1.869 0-3.62-.501-5.132-1.368v-.009a10.326 10.326 0 0 1-3.63-3.51c.281.204.57.391.876.57v.008a10.291 10.291 0 0 0 5.133 1.369c.323 0 .655-.017.97-.043a10.328 10.328 0 0 0 6.815-3.51 10.258 10.258 0 0 0 2.09-9.697 9.922 9.922 0 0 0-1.13-2.498c.417.297.8.62 1.165.977a10.188 10.188 0 0 1 2.72 4.462c.28.935.433 1.92.433 2.94z" opacity=".05"/><path fill="#ffcecf" d="M26.837 24.824c-3.12.296-5.081-2.825-5.081-2.825.246-.53.42-1.048.542-1.566.47-2.146-.049-3.996-.049-3.996h.013v.012l1.652.765 3.269 1.505s1.036-.913 1.147-.654c.086.16.48 2.368.752 3.873v.012c.136.777.234 1.369.234 1.369s.198 1.233-2.479 1.505z"/><path fill="#fdbec2" d="M29.082 21.938v.012s-4.625-.234-5.242-3.355c-.11-.567-.074-1.023.074-1.381l3.269 1.505s1.036-.913 1.147-.654c.086.16.48 2.368.752 3.873z"/><path fill="#ffcecf" d="M22.26 16.434s.033.054.087.152v.01c.423.716 2.213 3.526 4.838 4.144.629.14 1.301.163 2.028 0 .868-.206 1.584-.683 2.158-1.313.9-.987 1.454-2.375 1.768-3.752a13.11 13.11 0 0 0 .337-2.701v-.326c0-.574-.044-1.063-.13-1.431-.467-2.072-3.233-3.45-3.233-3.45-3.807.597-7.712 1.107-7.3 5.402 0 0-1.475-1.887-2.104-.358-.987 2.386 1.551 3.623 1.551 3.623z"/><path fill="#111d33" d="M18.887 10.837c-.001 5.922 3.587 7.1 3.587 7.1l-.127-1.34v-.011c-.054-.098-.087-.152-.087-.152s-2.538-1.237-1.55-3.623c.628-1.53 2.104.358 2.104.358s.314.705.607.944c.293.25.238-2.066.867-2.727.5-.51 6.194 2.925 9.933.781 3.08-1.766.817-5.17-3.663-7.892-4.469-2.723-8.807 2.603-8.807 2.603s-2.863-.283-2.864 3.959z"/></svg>