<svg xmlns="http://www.w3.org/2000/svg" enable-background="new 0 0 496 472.001" viewBox="0 0 496 472.001"><path fill="#a8dee1" d="M455.3,435.111c-97.626-88.209-225.358-72.488-369.81,0.96c-12.07-5.16-20.18-11.41-23.49-14.1
		c-6.1,4.97-28.55,22.03-62,22.03v28h496v-28C479.57,444.001,465.79,439.891,455.3,435.111z"/><path fill="#e15c63" d="M411.86,364.701h-17.72l13.72,72.46c13.53-5.33,22.6-12.3,26.14-15.19
		c3.1,2.53,10.44,8.19,21.3,13.14c1.68-3.29,3-6.81,3.9-10.48c0.9-3.68,1.37-7.52,1.37-11.47
		C460.57,386.401,438.76,364.701,411.86,364.701z"/><path fill="#a8dee1" d="M97.16 177.101c12.16-1.57 27.73 16.03 35.98 46.64-31.02-3.69-50.49-16.67-50.8-29.13C82.15 186.781 89.51 178.081 97.16 177.101zM81.25 289.911c12.16-1.57 27.72 16.03 35.98 46.64-31.02-3.69-50.49-16.68-50.8-29.13C66.24 299.591 73.6 290.891 81.25 289.911zM468.02 241.251c1.74 12.08-15.74 27.8-46.39 36.42 3.28-30.9 16.07-50.45 28.58-50.92C458.08 226.451 466.92 233.651 468.02 241.251zM477.48 302.941c7.67 1.79 14.28 11.06 13.31 18.67-1.55 12.11-22.59 22.66-54.44 22.89C447.75 315.571 465.29 300.101 477.48 302.941z"/><path fill="#ffc05a" d="M128.43 364.701c-13.45 0-25.63 5.42-34.45 14.2-8.82 8.76-14.27 20.88-14.27 34.26 0 8.29 2.1 16.09 5.78 22.91 10.19 4.36 23.2 7.93 38.51 7.93 3.75 0 7.36-.21 10.82-.6l11.32-78.7H128.43zM270.14 364.701c-18.527-24.26-39.567-20.023-62 0-23.018 17.083-23.841 39.861-7.59 67.02 11 6.04 27.21 12.28 47.45 12.28 8.04 0 15.44-.98 22.14-2.55C286.041 419.584 285.351 393.84 270.14 364.701zM394.14 364.701H341c-3.561-2.511-6.549-2.653-8.86 0l6.56 73.43c9.29 3.37 20.49 5.87 33.3 5.87 14.01 0 26.1-2.99 35.86-6.84 3.75-11.17 4-20.45 4-24C411.86 386.831 398 369.281 394.14 364.701z"/><path fill="#e15c63" d="M341 413.161c0 6.42-.45 15.01-2.3 24.97-14.95-5.43-24.94-13.09-28.7-16.16-4.63 3.78-18.7 14.53-39.86 19.48l0-76.75c15.25-27.3 36.062-26.567 62 0C336.06 375.061 341 391.921 341 413.161zM177.14 364.701c11.129-10.531 21.456-10.451 31 0-3.91 10.36-8.85 27.22-8.85 48.46 0 5 .27 11.31 1.26 18.56-7.18-3.94-12.14-7.78-14.55-9.75-5.42 4.41-23.72 18.36-51.18 21.43-6.04-13.86-6.39-26.05-6.39-30.24 0-26.33 13.85-43.88 17.71-48.46L177.14 364.701z"/><path fill="#1ea6bc" d="M387.13,56.321c-15.76,0-28.94,11.83-30.63,27.42c-2.74,25.3-7.84,54.57-17.05,86.35l-119.28-44.07
		c0.12-16.17,1.01-31.22,2.35-44.99c1.5-15.56-9.06-29.73-24.45-32.88c-2.11-0.43-4.2-0.64-6.27-0.64
		c-15.62,0-29.3,11.87-30.63,28.01c-2.2,26.39-2.67,57.14,0.67,91.15c4.51,45.98,14.7,85.01,25.22,115.51
		c3.93,11.42,4.47,23.72,1.6,35.46c-3.84,15.68-7.68,31.37-11.52,47.06h31h62h62H341v-43.72c0-11.46,3.16-22.68,9.03-32.54
		c16.6-27.85,34.69-64.27,48.54-108.77c10.16-32.63,15.94-62.84,19.15-89.13c0.15-1.25,0.23-2.49,0.23-3.71
		C417.95,70.211,404.29,56.321,387.13,56.321z"/><path fill="#fec4b9" d="M339.45,170.091c1.02,5.93,1.55,12.08,1.55,18.39c0,48.67-31.72,88.11-70.86,88.11
		c-39.13,0-70.85-39.44-70.85-88.11c0-24.41,7.98-46.5,20.88-62.46c12.81-15.85,30.48-25.64,49.97-25.64
		C304.21,100.381,332.65,130.261,339.45,170.091z"/><path fill="#ad6a6a" d="M296.71,206.111v8.79c0,14.61-11.84,26.45-26.45,26.45h-0.24c-14.61,0-26.45-11.84-26.45-26.45
		v-8.79H296.71z"/><path fill="#1498b7" d="M340.33,167.021c3.53,7.71,6.14,16.16,7.67,25.1c1.02,5.92,1.54,12.08,1.54,18.38
		c0,48.68-31.71,88.12-70.86,88.12c-31.58,0-58.33-25.7-67.47-61.21c12.71,23.63,34.36,39.18,58.93,39.18
		c39.14,0,70.86-39.44,70.86-88.11c0-6.31-0.53-12.46-1.55-18.39C339.75,169.061,340.04,168.041,340.33,167.021z"/><path fill="#ffc05a" d="M328.094,29.655c-13.952-3.847-28.271-5.121-42.627-3.813l-2.808-22.341
		c-0.276-2.192-2.279-3.748-4.468-3.469c-2.192,0.276-3.745,2.276-3.47,4.468l2.807,22.332c-14.127,2.25-28.006,7.095-40.367,14.132
		c-1.92,1.093-2.591,3.535-1.498,5.455c0.737,1.295,2.089,2.021,3.48,2.021c0.67,0,1.351-0.169,1.975-0.524
		c11.458-6.522,24.314-11.025,37.408-13.142l1.97,15.679c-11.212,1.867-21.894,5.64-31.795,11.27c-1.92,1.092-2.592,3.534-1.5,5.454
		c0.737,1.296,2.09,2.023,3.481,2.023c0.67,0,1.35-0.168,1.974-0.523c8.848-5.031,18.745-8.548,28.838-10.284l2.017,16.046
		c0.255,2.022,1.978,3.501,3.964,3.501c0.166,0,0.335-0.01,0.504-0.032c2.192-0.276,3.745-2.276,3.47-4.468l-2.016-16.038
		c10.279-0.812,20.517,0.159,30.492,2.913c2.133,0.588,4.333-0.662,4.92-2.792c0.588-2.129-0.661-4.332-2.791-4.92
		c-10.998-3.036-22.287-4.088-33.62-3.149l-1.97-15.672c13.303-1.179,26.572,0.017,39.502,3.582c2.134,0.588,4.333-0.664,4.92-2.793
		S330.223,30.242,328.094,29.655z"/></svg>