<svg xmlns="http://www.w3.org/2000/svg" viewBox="0 0 64 64"><path d="M3 61h58a1 1 0 0 0 1-1v-4a1 1 0 0 0-1-1h-6.1l-1.481-14.068 1.639 2.458.406 2.033c.196.98.812 1.814 1.691 2.291a3.34 3.34 0 0 0 2.842.165 3.363 3.363 0 0 0 1.889-1.921 3.363 3.363 0 0 0-.135-2.691l-.856-1.713c-.003-.007-.009-.011-.013-.017l-.004-.015-6-11a1.006 1.006 0 0 0-.506-.45l-2.71-1.084A8.987 8.987 0 0 0 55 22a8.978 8.978 0 0 0-1.127-4.319l-.516-5.162C54.967 11.837 56 10.498 56 9c0-2.153-2.137-3.914-4.803-3.997C50.134 3.158 48.163 2 46 2s-4.134 1.158-5.197 3.003C38.137 5.086 36 6.847 36 9c0 1.498 1.033 2.837 2.643 3.519l-.516 5.162A8.978 8.978 0 0 0 37 22a8.981 8.981 0 0 0 3.339 6.987l-2.71 1.084a1 1 0 0 0-.409.304l-3.375 4.219-4.078-3.262-1.089-1.815a3.781 3.781 0 0 0-.676-.81V26a2.996 2.996 0 0 0-2-2.816V19h1c1.654 0 3-1.346 3-3v-6c0-1.654-1.346-3-3-3h-4c-1.654 0-3 1.346-3 3v6c0 1.654 1.346 3 3 3h1v4.184a2.996 2.996 0 0 0-2 2.816v4.004a3.736 3.736 0 0 0-.281 1.908 3.74 3.74 0 0 0 1.797 2.765l1.892 1.135 6.648 5.817a2.987 2.987 0 0 0 3.896.046l2.795-2.33L37.1 55H19.618l1.173-2.346C22.663 51.931 24 50.124 24 48v-2.184A2.996 2.996 0 0 0 26 43c0-1.654-1.346-3-3-3H5c-1.654 0-3 1.346-3 3 0 1.302.839 2.402 2 2.816V48c0 2.124 1.337 3.931 3.209 4.654L8.382 55H3a1 1 0 0 0-1 1v4a1 1 0 0 0 1 1zm25-51v6c0 .551-.449 1-1 1h-1V9h1c.551 0 1 .449 1 1zm-5 7c-.551 0-1-.449-1-1v-6c0-.551.449-1 1-1h1v8h-1zm19.772 13.395c.04.015.081.026.121.04.201.074.403.145.61.205.079.023.159.041.238.061.191.05.382.098.577.135.098.019.197.03.295.045.181.028.361.058.545.076.129.012.259.013.388.02.152.008.301.023.454.023s.302-.015.454-.023c.13-.007.259-.008.388-.02.184-.017.364-.047.545-.076.098-.015.197-.026.295-.045.195-.037.386-.086.577-.135.079-.021.159-.038.238-.061.207-.06.41-.13.61-.205.04-.015.081-.025.121-.04L50.703 36h-9.405l1.474-5.605zm17.245 14.851a1.35 1.35 0 0 1-1.908.708 1.352 1.352 0 0 1-.683-.924l-.258-1.291 2.297-.574.497.995c.171.342.191.728.055 1.086zm-1.514-3.903l-2.062.515-3.516-5.274-1.452-5.518 1.822.729 5.208 9.548zM38 9c0-1.084 1.374-2 3-2 .058 0 .113.007.169.013l.161.015c.421.025.825-.21.995-.603a3.997 3.997 0 0 1 7.351 0c.169.393.579.636.995.603l.161-.015c.055-.006.11-.013.168-.013 1.626 0 3 .916 3 2 0 .799-.808 1.563-1.965 1.859a1 1 0 0 0-.748 1.068L51.895 18h-11.79l.607-6.072a1 1 0 0 0-.748-1.068C38.808 10.563 38 9.799 38 9zm1 13c0-.678.101-1.352.295-2h13.409c.195.648.296 1.322.296 2 0 2.776-1.629 5.173-3.977 6.304a6.962 6.962 0 0 1-.694.289l-.033.012a6.947 6.947 0 0 1-4.594 0l-.033-.012a7.062 7.062 0 0 1-.694-.289C40.629 27.173 39 24.776 39 22zm-15 4c0-.551.449-1 1-1s1 .449 1 1v1.738l-.019-.002c-.024-.003-.045-.014-.069-.017-.055-.007-.109.003-.163-.002a3.76 3.76 0 0 0-.52-.006c-.087.005-.173.005-.258.016a4.313 4.313 0 0 0-.856.218c-.038.014-.077.023-.114.038V26zm-.295 5.667a1.736 1.736 0 0 1 .185-1.005c.004-.008.011-.013.015-.021.043-.082.086-.152.13-.217.054-.075.107-.151.173-.217.14-.141.303-.248.474-.331l.042-.023c.171-.077.353-.125.539-.144l.041-.004a1.785 1.785 0 0 1 .6.055c.187.05.369.127.536.241l.016.008c.201.14.376.319.507.537l.779 1.299-1.896 1.896-1.299-.779a1.746 1.746 0 0 1-.842-1.295zm10.967 8.471a.997.997 0 0 1-1.299-.015l-5.911-5.172 1.611-1.611 4.301 3.441a.999.999 0 0 0 1.405-.156l3.835-4.794 1.911-.764-1.413 5.371-4.44 3.7zM40.9 38h10.2l1.79 17H39.111L40.9 38zM18.382 53l-1 2H15v-2h3.382zM5 42h18c.551 0 1 .449 1 1s-.449 1-1 1H5c-.551 0-1-.449-1-1s.449-1 1-1zm1 6v-2h16v2c0 1.654-1.346 3-3 3H9c-1.654 0-3-1.346-3-3zm3.618 5H13v2h-2.382l-1-2zM4 57h56v2H4v-2z"/><path d="M49 42h-6a1 1 0 00-1 1v3c0 2.206 1.794 4 4 4s4-1.794 4-4v-3a1 1 0 00-1-1zm-1 4c0 1.103-.897 2-2 2s-2-.897-2-2v-2h4v2zM13 32h2v5h-2zM18 34h2v4h-2zM8 34h2v4H8zM13 28h2v2h-2zM8 30h2v2H8zM18 30h2v2h-2z"/></svg>