<svg xmlns="http://www.w3.org/2000/svg" viewBox="0 0 48 48"><symbol id="New_Symbol_14" viewBox="-6.5 -6.5 13 13"><path fill="#ffd4c3" stroke="#504b46" stroke-linecap="round" stroke-linejoin="round" stroke-miterlimit="10" d="M0-6c2.2 0 4.1 1.5 4.7 3.5C6.3-2.5 6.4 0 5 0v1c0 2.8-2.2 5-5 5s-5-2.2-5-5V0c-1.4 0-1.3-2.5.2-2.5C-4.1-4.5-2.2-6 0-6z"/><circle cx="-1.6" cy="-.1" r=".1" fill="#ffc258"/><path fill="#4f4b45" d="M-1.6.5c-.3 0-.6-.3-.6-.6s.2-.7.6-.7c.3 0 .6.3.6.7s-.3.6-.6.6z"/><circle cx="1.6" cy="-.1" r=".1" fill="#ffc258"/><path fill="#4f4b45" d="M1.6.5C1.3.5 1 .2 1-.1s.3-.6.6-.6.6.3.6.6-.2.6-.6.6z"/><circle cx="-3" cy="-1.5" r=".5" fill="#fabfa5"/><circle cx="3" cy="-1.5" r=".5" fill="#fabfa5"/><path fill="none" stroke="#504b46" stroke-linecap="round" stroke-linejoin="round" stroke-miterlimit="10" d="M-1.2-3c.8-.5 1.7-.5 2.5 0"/></symbol><g id="Icons"><g id="XMLID_1884_"><ellipse id="XMLID_1264_" cx="33.7" cy="44.9" fill="#45413c" opacity=".15" rx="11.5" ry="1.5"/><path id="XMLID_2848_" fill="#4acfff" stroke="#45413c" stroke-linecap="round" stroke-linejoin="round" stroke-miterlimit="10" d="M17.2 23l-3.6 1.6c-.5.2-.9.7-.9 1.3 0 .8.6 1.5 1.4 1.5.6 0 1.1-.3 1.4-.8l1.8-3.5c.1 0 0-.1-.1-.1z"/><path id="XMLID_2847_" fill="#4acfff" stroke="#45413c" stroke-linecap="round" stroke-linejoin="round" stroke-miterlimit="10" d="M9.7 30.3l-3.2 2.2c-.5.3-.7.9-.6 1.5.1.8.9 1.4 1.7 1.2.6-.1 1-.5 1.2-1l1.1-3.7c-.1-.2-.2-.3-.2-.2z"/><path id="XMLID_2846_" fill="#4acfff" stroke="#45413c" stroke-linecap="round" stroke-linejoin="round" stroke-miterlimit="10" d="M14.3 18l-3.8.8c-.6.1-1 .5-1.1 1.1-.2.8.3 1.6 1.1 1.8.6.1 1.1-.1 1.5-.5l2.5-3c-.1-.1-.1-.2-.2-.2z"/><path id="XMLID_2845_" fill="#4acfff" stroke="#45413c" stroke-linecap="round" stroke-linejoin="round" stroke-miterlimit="10" d="M5.7 23.7l-3.6 1.5c-.5.2-.9.7-.9 1.3 0 .8.6 1.5 1.4 1.6.6 0 1.1-.3 1.4-.8l1.8-3.4c0-.1 0-.2-.1-.2z"/><path id="XMLID_2844_" fill="#4acfff" stroke="#45413c" stroke-linecap="round" stroke-linejoin="round" stroke-miterlimit="10" d="M21.8 27.1l-3.3 2.1c-.5.3-.7.9-.7 1.4.1.8.8 1.4 1.7 1.3.6-.1 1-.5 1.2-1l1.2-3.7c0-.1 0-.2-.1-.1z"/><path id="XMLID_2843_" fill="#4acfff" stroke="#45413c" stroke-linecap="round" stroke-linejoin="round" stroke-miterlimit="10" d="M15.9 35.9l-2.8 2.7c-.4.4-.6 1-.4 1.5.3.8 1.1 1.2 1.9.9.5-.2.9-.7 1-1.2l.4-3.9c.1 0 0-.1-.1 0z"/><path id="XMLID_2842_" fill="#4acfff" stroke="#45413c" stroke-linecap="round" stroke-linejoin="round" stroke-miterlimit="10" d="M27.1 29.3L24.3 32c-.4.4-.6 1-.4 1.5.3.8 1.1 1.2 1.9.9.5-.2.9-.7 1-1.2l.5-3.9c-.1 0-.2-.1-.2 0z"/><path id="XMLID_2841_" fill="#4acfff" stroke="#45413c" stroke-linecap="round" stroke-linejoin="round" stroke-miterlimit="10" d="M23.1 39.4l-2.4 3.1c-.4.5-.4 1.1-.1 1.6.4.7 1.3 1 2 .6.5-.3.8-.8.8-1.4l-.1-3.9s-.1-.1-.2 0z"/><g id="XMLID_2828_"><path id="XMLID_2840_" fill="#c0dceb" d="M37 10.7c.3-.3.3-.7 0-1l-2.8-2.8c-.3-.3-.7-.3-1 0-.8.8-1.9 1.3-3 1.3H19.5L36 24.7l-.2-10.8c0-1.2.4-2.4 1.2-3.2z"/><path id="XMLID_2839_" fill="#daedf7" d="M31.2 10.1c1.3-.1 2.5-.7 3.5-1.7.2-.2.4-.3.7-.3l-1.2-1.2c-.3-.3-.7-.3-1 0-.8.8-1.9 1.3-3 1.3H19.5l2.8 2.8 8.9-.9z"/><path id="XMLID_2838_" fill="none" stroke="#45413c" stroke-linecap="round" stroke-linejoin="round" stroke-miterlimit="10" d="M37 10.7c.3-.3.3-.7 0-1l-2.8-2.8c-.3-.3-.7-.3-1 0-.8.8-1.9 1.3-3 1.3H19.5L36 24.7l-.2-10.8c0-1.2.4-2.4 1.2-3.2z"/><path id="XMLID_2837_" fill="#e8f4fa" d="M34.2 27L17.1 9.9c-.1-.1-.1-.4 0-.5l1.6-1.6c.1-.1.4-.1.5 0l17.1 17.1c.1.1.1.4 0 .5L34.7 27c-.1.1-.4.1-.5 0z"/><path id="XMLID_2836_" fill="#fff" d="M23.8 12.5l-4.6-4.6c-.1-.1-.4-.1-.5 0l-1.6 1.6c-.1.1-.1.4 0 .5l4.6 4.6 2.1-2.1z"/><path id="XMLID_2835_" fill="none" stroke="#45413c" stroke-linecap="round" stroke-linejoin="round" stroke-miterlimit="10" d="M34.2 27L17.1 9.9c-.1-.1-.1-.4 0-.5l1.6-1.6c.1-.1.4-.1.5 0l17.1 17.1c.1.1.1.4 0 .5L34.7 27c-.1.1-.4.1-.5 0z"/><path id="XMLID_2834_" fill="#adc4d9" d="M31.9 27.2l-15-15c-.3-.3-.3-.7 0-1l.8-.8 16 16-.8.8c-.3.3-.8.3-1 0z"/><path id="XMLID_2833_" fill="#c0dceb" d="M18.6 13c-.2.2-.3.6-.1.9l-1.6-1.6c-.3-.3-.3-.7 0-1l.8-.8 1.8 1.8-.9.7z"/><path id="XMLID_2832_" fill="none" stroke="#45413c" stroke-linecap="round" stroke-linejoin="round" stroke-miterlimit="10" d="M31.9 27.2l-15-15c-.3-.3-.3-.7 0-1l.8-.8 16 16-.8.8c-.3.3-.8.3-1 0z"/><path id="XMLID_2831_" fill="#e8f4fa" d="M46.8 4V2.6c0-.5-.4-.9-.9-.9h-3.1c-1.9 0-3.7.7-5 2.1l-3.4 3.4 2.3 2.3L40 6.1c.8-.8 1.8-1.2 2.9-1.2h2.9c.6 0 1-.4 1-.9z"/><path id="XMLID_2830_" fill="#fff" d="M37.8 5.3c1.3-1.3 3.1-2.1 5-2.1h3.1c.5 0 .9.4.9.8V2.6c0-.5-.4-.9-.9-.9h-3.1c-1.9 0-3.7.7-5 2.1l-3.4 3.4.8.8 2.6-2.7z"/><path id="XMLID_2829_" fill="none" stroke="#45413c" stroke-linecap="round" stroke-linejoin="round" stroke-miterlimit="10" d="M46.8 4V2.6c0-.5-.4-.9-.9-.9h-3.1c-1.9 0-3.7.7-5 2.1l-3.4 3.4 2.3 2.3L40 6.1c.8-.8 1.8-1.2 2.9-1.2h2.9c.6 0 1-.4 1-.9z"/></g></g></g></svg>