<svg xmlns="http://www.w3.org/2000/svg" viewBox="0 0 64 64"><path d="M43 38H21a1 1 0 0 0-1 1v8a1 1 0 0 0 1 1h22a1 1 0 0 0 1-1v-8a1 1 0 0 0-1-1zm-18 7a2 2 0 1 1 2-2 2 2 0 0 1-2 2zm16 0H29v-4h12zm2 5H21a1 1 0 0 0-1 1v8a1 1 0 0 0 1 1h22a1 1 0 0 0 1-1v-8a1 1 0 0 0-1-1zm-18 7a2 2 0 1 1 2-2 2 2 0 0 1-2 2zm16 0H29v-4h12zm20-39H47a1 1 0 0 0-1 1v40a1 1 0 0 0 1 1h14a1 1 0 0 0 1-1V19a1 1 0 0 0-1-1zm-7 38a5 5 0 1 1 5-5 5.006 5.006 0 0 1-5 5zm-4-17a4 4 0 1 1 4 4 4 4 0 0 1-4-4zm4-7a5 5 0 1 1 5-5 5.006 5.006 0 0 1-5 5z"/><circle cx="54" cy="27" r="3"/><circle cx="54" cy="51" r="3"/><circle cx="54" cy="39.001" r="2"/><path d="M17 18H3a1 1 0 0 0-1 1v40a1 1 0 0 0 1 1h14a1 1 0 0 0 1-1V19a1 1 0 0 0-1-1Zm-7 38a5 5 0 1 1 5-5 5.006 5.006 0 0 1-5 5ZM6 39a4 4 0 1 1 4 4 4 4 0 0 1-4-4Zm4-7a5 5 0 1 1 5-5 5.006 5.006 0 0 1-5 5Z"/><circle cx="10" cy="27" r="3"/><circle cx="10" cy="51" r="3"/><circle cx="10" cy="39.001" r="2"/><path d="M17.646 4.237a1 1 0 0 0-.81-.223l-6 1A1 1 0 0 0 10 6v5a2 2 0 1 0 2 2V6.848l4-.667V10a2 2 0 1 0 2 2V5a1 1 0 0 0-.354-.763zm41.324.521a1 1 0 0 0-1.212-.728l-4 1A1 1 0 0 0 53 6v5a2 2 0 1 0 2 2V6.781l3.242-.81a1 1 0 0 0 .728-1.213zm-23.86 26.82a1.007 1.007 0 0 1-.351-.064 7.847 7.847 0 0 0-5.518 0 1 1 0 0 1-.7-1.873 9.86 9.86 0 0 1 6.924 0 1 1 0 0 1-.352 1.937zm2.869-4.1a1 1 0 0 1-.459-.112 12 12 0 0 0-11.041 0 1 1 0 0 1-.92-1.776 14 14 0 0 1 12.881 0 1 1 0 0 1-.461 1.888zm2.81-4.01a1 1 0 0 1-.518-.145 15.893 15.893 0 0 0-16.543 0 1 1 0 0 1-1.037-1.71 17.891 17.891 0 0 1 18.617 0 1 1 0 0 1-.519 1.855z"/></svg>