<svg xmlns="http://www.w3.org/2000/svg" viewBox="0 0 100 100"><path d="M89 30H65c-.3-3.8-2.6-7-5.8-8.7L75 11.7c.9-.6 1.2-1.8.7-2.7-.5-1-1.8-1.3-2.7-.7L53.5 20h-6.9L27 8.3c-1-.6-2.2-.3-2.7.7-.6 1-.3 2.2.7 2.7l15.9 9.6C37.7 23 35.4 26.2 35 30H11c-3.3 0-6 2.7-6 6v50c0 3.3 2.7 6 6 6h78c3.3 0 6-2.7 6-6V36c0-3.3-2.7-6-6-6zm-43-6h8c3.5 0 6.4 2.6 6.9 6H39.1c.5-3.4 3.4-6 6.9-6zm45 62c0 1.1-.9 2-2 2H11c-1.1 0-2-.9-2-2V36c0-1.1.9-2 2-2h78c1.1 0 2 .9 2 2v50z"/><path d="M67 40H23c-4.4 0-8 3.6-8 8v26c0 4.4 3.6 8 8 8h44c4.4 0 8-3.6 8-8V48c0-4.4-3.6-8-8-8zm4 34c0 2.2-1.8 4-4 4H23c-2.2 0-4-1.8-4-4V48c0-2.2 1.8-4 4-4h44c2.2 0 4 1.8 4 4v26z"/><circle cx="83" cy="42" r="2"/><circle cx="83" cy="52" r="2"/><circle cx="83" cy="62" r="2"/></svg>